<?xml version="1.0" standalone="no"?>
<!DOCTYPE svg PUBLIC "-//W3C//DTD SVG 20010904//EN"
        "http://www.w3.org/TR/2001/REC-SVG-20010904/DTD/svg10.dtd">
<svg version="1.0" xmlns="http://www.w3.org/2000/svg"
     width="640.000000pt" height="640.000000pt" viewBox="0 0 640.000000 640.000000"
     preserveAspectRatio="xMidYMid meet">
    <metadata>
        Created by potrace 1.14, written by Peter Selinger 2001-2017
    </metadata>
    <g transform="translate(0.000000,640.000000) scale(0.100000,-0.100000)"
       fill="#000000" stroke="none">
        <path d="M1215 5745 c-67 -36 -84 -67 -103 -180 -7 -38 -14 -79 -16 -90 -2
-11 -16 -92 -30 -180 -14 -88 -28 -169 -30 -180 -3 -17 -23 -141 -32 -200 -6
-41 -24 -129 -28 -132 -4 -5 -199 -40 -381 -69 -11 -1 -47 -7 -80 -13 -33 -6
-75 -13 -92 -16 -18 -3 -45 -7 -60 -10 -25 -4 -77 -12 -198 -31 -64 -10 -100
-29 -131 -70 -24 -31 -29 -47 -29 -94 0 -64 -19 -33 323 -519 100 -143 184
-266 187 -273 5 -12 -16 -46 -126 -203 -131 -187 -280 -399 -317 -450 -61 -86
-75 -121 -68 -172 9 -68 60 -127 118 -138 13 -3 34 -7 48 -10 27 -5 60 -10
125 -20 23 -3 52 -7 65 -10 13 -3 42 -7 65 -11 22 -3 45 -7 50 -8 6 -2 30 -6
55 -10 25 -4 52 -9 60 -10 8 -2 38 -6 65 -10 28 -4 73 -11 100 -16 99 -19 111
-20 155 -27 53 -7 73 -16 76 -34 2 -14 6 -42 20 -134 5 -27 9 -52 9 -55 2 -9
17 -95 20 -120 3 -14 11 -63 19 -110 8 -47 17 -105 21 -130 28 -188 55 -312
75 -340 40 -56 124 -81 186 -55 18 7 86 51 151 96 65 45 119 84 121 85 2 1 14
46 27 100 82 331 263 588 552 782 34 23 66 42 71 42 4 0 17 6 27 14 16 12 9
12 -48 1 -86 -16 -283 -12 -362 8 -115 30 -141 39 -223 80 -95 48 -169 101
-244 175 -71 69 -75 74 -135 166 -63 94 -108 208 -134 331 -27 127 -20 316 14
438 75 263 253 482 491 601 139 70 244 97 401 102 215 6 390 -42 561 -155 267
-177 423 -461 433 -788 1 -22 3 -21 79 16 112 55 222 91 357 116 17 3 84 8
150 12 107 5 122 8 137 27 9 11 102 142 205 291 l188 270 0 57 c-1 61 -17 94
-66 130 -22 16 -122 39 -274 62 -22 4 -80 13 -130 22 -49 8 -101 17 -115 19
-14 2 -92 15 -175 29 -82 14 -162 27 -177 29 -15 1 -30 5 -33 8 -5 6 -21 84
-31 149 -3 19 -7 46 -9 60 -3 14 -7 43 -11 65 -3 22 -7 47 -9 55 -3 8 -7 33
-10 55 -4 22 -17 108 -31 190 -14 83 -27 164 -30 180 -17 112 -27 141 -63 176
-28 28 -48 39 -84 44 -58 9 -88 -1 -163 -55 -114 -81 -560 -393 -611 -428
l-53 -35 -57 39 c-31 21 -66 46 -79 54 -13 8 -103 71 -200 140 -97 69 -202
143 -233 164 -31 21 -81 56 -112 78 -67 46 -136 59 -184 33z"/>
        <path d="M1940 4304 c-176 -37 -351 -174 -429 -336 -50 -103 -69 -183 -69
-290 0 -303 219 -568 518 -626 19 -4 80 -7 135 -6 171 1 315 62 435 183 121
123 181 260 186 426 4 118 -12 196 -60 298 -41 88 -53 105 -138 188 -86 85
-172 131 -308 166 -43 12 -212 10 -270 -3z"/>
        <path d="M3467 3494 c-181 -44 -318 -118 -452 -245 -167 -159 -274 -385 -291
-613 -3 -45 -8 -83 -10 -85 -2 -3 -35 -12 -73 -22 -321 -82 -586 -337 -680
-654 -32 -108 -33 -121 -36 -264 -1 -102 3 -155 17 -214 43 -184 122 -329 253
-463 131 -134 277 -219 455 -265 l85 -23 1475 -2 c1614 -2 1535 -4 1689 57 98
39 196 105 270 182 76 79 102 115 146 204 59 122 79 210 79 353 -1 70 -6 145
-13 170 -7 25 -14 52 -16 60 -7 35 -49 129 -83 185 -104 172 -272 299 -470
356 -60 17 -72 24 -67 38 4 9 9 63 11 121 9 288 -121 544 -356 696 -93 60
-165 90 -285 120 -55 13 -241 12 -306 -1 -109 -23 -245 -79 -284 -116 -16 -15
-21 -11 -73 59 -91 123 -209 223 -337 286 -152 75 -248 98 -420 101 -108 2
-146 -1 -228 -21z"/>
    </g>
</svg>
